<svg width="49" height="59" viewBox="0 0 49 59" fill="none" xmlns="http://www.w3.org/2000/svg">
<path d="M0.0234375 42.6875C0.0234375 40.0573 0.752604 37.6224 2.21094 35.3828C3.69531 33.1432 6.40365 30.6562 10.3359 27.9219C8.64323 25.6562 7.3151 23.5339 6.35156 21.5547C5.38802 19.5495 4.90625 17.4661 4.90625 15.3047C4.90625 10.8776 6.29948 7.28385 9.08594 4.52344C11.8984 1.73698 15.6745 0.34375 20.4141 0.34375C24.6589 0.34375 28.1354 1.60677 30.8438 4.13281C33.5781 6.65885 34.9453 9.8099 34.9453 13.5859C34.9453 18.1172 32.6536 22.1146 28.0703 25.5781L23.6953 28.7422L33.5 40.1484C35.0365 37.1276 35.8047 33.7943 35.8047 30.1484H45.4141C45.4141 37.5443 43.7083 43.5339 40.2969 48.1172L48.8125 58H36L33.0703 54.6406C28.8776 57.401 24.0599 58.7812 18.6172 58.7812C12.9922 58.7812 8.48698 57.3099 5.10156 54.3672C1.71615 51.3984 0.0234375 47.5052 0.0234375 42.6875ZM19.1641 49.7188C21.8724 49.7188 24.4375 48.9635 26.8594 47.4531L15.6484 34.4844L14.8281 35.0703C12.5104 37.0495 11.3516 39.3802 11.3516 42.0625C11.3516 44.3281 12.0677 46.1771 13.5 47.6094C14.9583 49.0156 16.8464 49.7188 19.1641 49.7188ZM15.0234 15.1484C15.0234 17.1016 16.1693 19.5625 18.4609 22.5312L21.4688 20.5391C23.0052 19.5495 24.0599 18.5859 24.6328 17.6484C25.2318 16.7109 25.5312 15.5911 25.5312 14.2891C25.5312 12.987 25.0495 11.8542 24.0859 10.8906C23.1224 9.92708 21.8854 9.44531 20.375 9.44531C18.7604 9.44531 17.4583 9.96615 16.4688 11.0078C15.5052 12.0495 15.0234 13.4297 15.0234 15.1484Z" fill="#F37F13"/>
</svg>
