<svg width="376" height="320" viewBox="0 0 376 320" fill="none" xmlns="http://www.w3.org/2000/svg">
<g filter="url(#filter0_d)">
<path d="M76.7353 68.677C75.5319 70.2758 76.5061 71.6188 79.6004 72.4502C83.8409 73.6653 85.8465 74.9443 89.17 78.7174C92.0925 81.9789 93.0666 83.8975 98.3385 96.9436C99.6565 100.333 101.433 104.682 102.235 106.6C103.037 108.519 105.272 114.147 107.22 119.071C109.169 123.995 111.289 129.303 111.919 130.902C112.55 132.501 114.097 136.21 115.3 139.088C116.561 142.029 117.535 144.523 117.535 144.651C117.535 144.779 118.395 146.954 119.483 149.576C120.515 152.134 122.234 156.418 123.265 159.04C124.297 161.662 126.073 166.139 127.276 168.953C128.423 171.767 129.855 175.412 130.485 177.075C131.058 178.801 131.861 180.144 132.205 180.144C133.121 180.144 145.613 165.052 145.613 164.029C145.613 163.517 144.697 160.959 143.55 158.337C142.404 155.715 140.227 150.599 138.737 146.89C137.247 143.18 134.955 137.681 133.637 134.611C132.376 131.541 131.288 128.855 131.288 128.727C131.288 128.536 130.314 126.041 129.053 123.1C119.884 101.228 114.097 84.4731 114.097 79.8046C114.097 77.3105 114.383 76.4791 115.701 75.1361C117.821 72.9618 118.853 72.5781 124.125 72.1304C128.652 71.7467 128.709 71.7467 128.709 69.9561V68.1654L103.037 68.0375C83.6116 67.9736 77.1937 68.1015 76.7353 68.677Z" fill="#089ECA"/>
<path d="M169.566 68.6771C168.649 69.9561 169.279 71.7467 170.827 71.9386C176.099 72.5781 179.193 73.7292 181.37 76.0315L183.605 78.3977L183.319 82.7464C182.918 88.3102 179.995 98.2866 172.145 120.67C167.904 132.692 164.982 140.047 163.778 141.965C163.091 143.117 162.862 144.012 163.205 144.396C163.549 144.779 166.472 141.965 171.056 136.849C177.588 129.559 180.568 125.274 180.568 123.228C180.568 122.908 181.027 121.373 181.657 119.838C182.23 118.367 183.376 115.298 184.121 112.995C188.132 101.484 190.367 95.2169 193.232 87.7346C197.472 76.5431 199.249 74.7524 209.105 71.6828C209.563 71.5549 209.793 70.7235 209.678 69.7642L209.506 68.1654L189.851 68.0375C175.067 67.9096 170.024 68.1015 169.566 68.6771Z" fill="#089ECA"/>
<path d="M236.27 75.2649C232.144 79.5497 225.325 86.5204 221.084 90.7412C216.901 94.962 210.999 100.973 207.962 104.171C204.982 107.305 199.538 112.932 195.928 116.578C179.253 133.461 139.027 179.57 118.569 205.15C114.616 210.075 108.656 217.365 105.275 221.33C96.2214 232.01 97.1955 232.969 106.708 222.929C113.068 216.214 120.747 208.476 124.357 205.15C137.308 193.064 194.553 130.007 211.343 109.287C217.474 101.677 224.236 93.2992 229.966 86.3285C232.545 83.1949 234.894 80.2531 235.181 79.8694C235.525 79.4857 237.817 76.7998 240.338 73.9219C243.318 70.4686 244.693 68.4861 244.292 68.0384C243.948 67.6547 241.14 70.1488 236.27 75.2649Z" fill="#089ECA"/>
<path d="M275.175 103.722C274.889 104.042 274.545 105.193 274.316 106.153C274.086 107.112 273.227 109.734 272.31 111.908C270.935 115.298 264.058 132.629 261.652 138.896C261.251 139.919 260.334 142.221 259.646 144.012C258.901 145.739 257.526 149.384 256.494 152.006C255.463 154.628 252.254 162.814 249.332 170.232C246.409 177.586 242.283 188.138 240.163 193.638C238.043 199.138 235.865 204.638 235.407 205.789C234.891 207.004 234.376 208.603 234.146 209.37C233.745 210.969 232.599 211.289 231.74 210.01C231.453 209.626 230.364 207.068 229.276 204.446C228.244 201.824 226.009 196.388 224.29 192.359C222.628 188.394 221.253 185.005 221.253 184.813C221.253 184.685 220.05 181.743 218.617 178.354C217.185 174.964 215.122 169.976 214.09 167.354C213.059 164.732 210.939 159.552 209.391 155.843C207.844 152.134 204.75 144.715 202.63 139.343C200.452 133.972 198.504 129.687 198.332 129.751C198.103 129.879 194.779 133.588 190.94 138.064L183.892 146.186L185.095 148.936C186.929 153.349 190.252 161.407 192.888 167.994C194.264 171.319 196.384 176.563 197.702 179.697C198.962 182.766 200.051 185.388 200.051 185.516C200.051 185.644 201.312 188.714 202.859 192.359C204.349 196.004 206.183 200.417 206.927 202.208C207.615 203.934 209.334 208.091 210.709 211.417C212.085 214.678 213.231 217.492 213.231 217.62C213.231 217.684 214.205 220.178 215.466 223.12C216.669 226.062 218.216 229.707 218.846 231.306C222.858 241.282 225.207 246.526 225.78 246.974C226.181 247.166 226.869 247.038 227.385 246.59C228.359 245.695 228.932 244.224 237.298 223.312C241.997 211.481 242.341 210.713 244.69 204.894C245.664 202.527 246.466 200.481 246.466 200.289C246.466 200.161 247.613 197.283 249.045 193.958C250.478 190.569 251.624 187.691 251.624 187.499C251.624 187.371 252.999 183.854 254.718 179.697C256.38 175.54 258.385 170.68 259.073 168.953C259.818 167.162 261.136 163.965 261.996 161.726C262.912 159.552 263.657 157.634 263.657 157.506C263.657 157.378 264.631 154.82 265.892 151.878C268.413 145.803 275.347 127.96 275.863 126.233C276.092 125.658 276.608 125.146 277.123 125.146C277.926 125.146 277.983 130.582 277.868 178.034L277.697 230.986L275.977 234.823C273.915 239.427 271.393 241.09 264.517 242.369C260.276 243.137 259.933 243.328 259.933 244.799V246.334L287.209 246.526L314.542 246.654L314.829 245.247C315.287 243.328 314.886 242.817 312.88 242.817C309.099 242.817 303.827 240.77 301.477 238.404C297.351 234.247 297.409 235.782 297.581 173.046L297.753 117.792L299.128 114.722C299.873 112.995 301.248 111.077 302.222 110.437C303.655 109.414 309.5 107.687 313.224 107.112C314.084 106.92 314.37 106.408 314.37 105.129V103.339L295.002 103.211C282.625 103.147 275.404 103.339 275.175 103.722Z" fill="#089ECA"/>
<path d="M171.801 159.616L167.962 164.029V193.318C167.962 222.928 167.732 227.532 165.727 232.904C163.836 238.212 158.736 241.794 151.687 242.753C149.052 243.073 148.765 243.264 148.765 244.735V246.334H171.686H194.607L194.779 244.671C194.951 243.073 194.779 243.009 191.8 242.561C185.382 241.73 180.969 238.98 178.792 234.503C176.328 229.387 176.385 229.899 176.156 192.039C176.041 172.023 175.869 155.523 175.812 155.395C175.697 155.267 173.864 157.186 171.801 159.616Z" fill="#089ECA"/>
</g>
<defs>
<filter id="filter0_d" x="72.2353" y="67.9997" width="246.765" height="187.06" filterUnits="userSpaceOnUse" color-interpolation-filters="sRGB">
<feFlood flood-opacity="0" result="BackgroundImageFix"/>
<feColorMatrix in="SourceAlpha" type="matrix" values="0 0 0 0 0 0 0 0 0 0 0 0 0 0 0 0 0 0 127 0"/>
<feOffset dy="4"/>
<feGaussianBlur stdDeviation="2"/>
<feColorMatrix type="matrix" values="0 0 0 0 0 0 0 0 0 0 0 0 0 0 0 0 0 0 0.25 0"/>
<feBlend mode="normal" in2="BackgroundImageFix" result="effect1_dropShadow"/>
<feBlend mode="normal" in="SourceGraphic" in2="effect1_dropShadow" result="shape"/>
</filter>
</defs>
</svg>
