<svg width="76" height="10" viewBox="0 0 76 10" fill="none" xmlns="http://www.w3.org/2000/svg">
<path d="M0.348 6.48L4.512 8.94C4.668 9.036 4.848 8.94 4.848 8.748V7.908C4.848 7.8 4.788 7.752 4.74 7.716L2.16 6.228L4.74 4.692C4.788 4.656 4.848 4.608 4.848 4.5V3.66C4.848 3.468 4.668 3.372 4.512 3.468L0.348 6.012C0.288 6.048 0.228 6.144 0.228 6.216V6.276C0.228 6.348 0.288 6.444 0.348 6.48ZM66.9574 8.7C66.9094 8.868 67.0174 9 67.1734 9H68.0494C68.1334 9 68.2414 8.928 68.2654 8.844L70.6054 0.9C70.6534 0.732 70.5574 0.599999 70.3894 0.599999H69.5254C69.4294 0.599999 69.3334 0.672 69.3094 0.756L66.9574 8.7ZM71.2238 8.748C71.2238 8.94 71.4038 9.036 71.5598 8.94L75.7238 6.48C75.7838 6.444 75.8438 6.348 75.8438 6.276V6.216C75.8438 6.144 75.7838 6.048 75.7238 6.012L71.5598 3.468C71.4038 3.372 71.2238 3.468 71.2238 3.66V4.5C71.2238 4.608 71.2718 4.656 71.3318 4.692L73.8998 6.228L71.3318 7.716C71.2718 7.752 71.2238 7.8 71.2238 7.908V8.748Z" fill="#EC7620"/>
<path d="M8.93456 8.988C8.97056 9.06 9.05456 9.12 9.13856 9.12H9.25856C9.35456 9.12 9.42656 9.06 9.46256 8.988L13.1466 0.912C13.2186 0.756 13.1226 0.599999 12.9426 0.599999H12.0906C11.9826 0.599999 11.9106 0.672 11.8866 0.732L9.24656 6.672H9.17456L6.53456 0.732C6.51056 0.672 6.42656 0.599999 6.33056 0.599999H5.47856C5.29856 0.599999 5.20256 0.756 5.27456 0.912L8.93456 8.988ZM14.4101 2.244C14.8061 2.244 15.1181 1.932 15.1181 1.548C15.1181 1.152 14.8061 0.84 14.4101 0.84C14.0261 0.84 13.7261 1.152 13.7261 1.548C13.7261 1.932 14.0261 2.244 14.4101 2.244ZM13.8581 8.772C13.8581 8.892 13.9661 9 14.0861 9H14.7701C14.8901 9 14.9981 8.892 14.9981 8.772V4.428C14.9981 4.308 14.8901 4.2 14.7701 4.2H14.0861C13.9661 4.2 13.8581 4.308 13.8581 4.428V8.772ZM18.0294 9C18.0534 9.06 18.1254 9.12 18.2334 9.12H18.2934C18.4014 9.12 18.4734 9.06 18.4974 9L20.6214 4.476C20.6934 4.32 20.6214 4.2 20.4414 4.2H19.8894C19.7574 4.2 19.6254 4.2 19.5654 4.332L18.2694 7.164H18.2574L17.0094 4.332C16.9734 4.26 16.9134 4.2 16.7934 4.2H16.0854C15.9054 4.2 15.8334 4.32 15.9054 4.476L18.0294 9ZM21.1859 6.6C21.1859 7.98 22.1459 9.12 23.5979 9.12C24.4019 9.12 25.0259 8.82 25.3739 8.52C25.5179 8.4 25.4819 8.304 25.3979 8.208L25.0619 7.752C24.9659 7.632 24.8819 7.68 24.7379 7.764C24.4979 7.92 24.1019 8.112 23.6699 8.112C22.8899 8.112 22.3259 7.476 22.2899 6.828H25.5539C25.6619 6.828 25.7579 6.744 25.7699 6.624C25.7819 6.54 25.7939 6.384 25.7939 6.3C25.7939 5.016 24.8339 4.08 23.5859 4.08C22.1459 4.08 21.1859 5.244 21.1859 6.6ZM22.3499 6.072C22.4219 5.472 22.9259 5.004 23.5739 5.004C24.1619 5.004 24.6419 5.496 24.6779 6.072H22.3499ZM26.948 8.772C26.948 8.892 27.056 9 27.176 9H27.872C27.992 9 28.1 8.892 28.1 8.772V6.672L30.272 8.904C30.308 8.952 30.404 9 30.488 9H31.472C31.676 9 31.712 8.796 31.604 8.688L29.252 6.336L31.244 4.524C31.352 4.428 31.316 4.2 31.112 4.2H30.272C30.152 4.2 30.056 4.272 29.972 4.344L28.1 6.024V0.827999C28.1 0.707999 27.992 0.599999 27.872 0.599999H27.176C27.056 0.599999 26.948 0.707999 26.948 0.827999V8.772ZM34.958 8.724C34.934 8.892 35.03 9 35.186 9H36.266C36.374 9 36.47 8.904 36.482 8.82L37.178 4.272C37.19 4.272 37.214 4.272 37.214 4.272L39.338 8.988C39.374 9.06 39.434 9.12 39.542 9.12H39.758C39.866 9.12 39.938 9.06 39.962 8.988L42.062 4.272C42.062 4.272 42.086 4.272 42.098 4.272L42.806 8.82C42.83 8.904 42.926 9 43.034 9H44.126C44.282 9 44.378 8.892 44.342 8.724L42.926 0.659999C42.914 0.564 42.842 0.48 42.71 0.48H42.518C42.41 0.48 42.35 0.528 42.314 0.599999L39.674 6.264C39.662 6.264 39.662 6.264 39.638 6.264L36.998 0.599999C36.962 0.528 36.89 0.48 36.794 0.48H36.602C36.47 0.48 36.398 0.564 36.386 0.659999L34.958 8.724ZM46.1936 2.496C46.6616 2.496 47.0336 2.124 47.0336 1.668C47.0336 1.212 46.6616 0.84 46.1936 0.84C45.7376 0.84 45.3776 1.212 45.3776 1.668C45.3776 2.124 45.7376 2.496 46.1936 2.496ZM45.4856 8.772C45.4856 8.892 45.5936 9 45.7136 9H46.7096C46.8296 9 46.9376 8.892 46.9376 8.772V4.428C46.9376 4.296 46.8296 4.2 46.7096 4.2H45.7136C45.5936 4.2 45.4856 4.296 45.4856 4.428V8.772ZM48.6322 7.572C48.6322 8.544 49.0402 9.12 49.9642 9.12C50.5522 9.12 51.3322 8.844 51.3922 8.808C51.5122 8.76 51.5722 8.64 51.5242 8.52L51.2842 7.764C51.2482 7.644 51.1522 7.584 51.0202 7.632C50.8882 7.68 50.6362 7.764 50.4322 7.764C50.2402 7.764 50.0602 7.716 50.0602 7.38V5.46H51.1162C51.2482 5.46 51.3442 5.352 51.3442 5.232V4.428C51.3442 4.296 51.2482 4.2 51.1162 4.2H50.0602V2.856C50.0602 2.736 49.9642 2.628 49.8442 2.628L48.8602 2.64C48.7402 2.64 48.6322 2.748 48.6322 2.868V4.2H48.2242C48.1042 4.2 48.0082 4.296 48.0082 4.428V5.232C48.0082 5.352 48.1042 5.46 48.2242 5.46H48.6322V7.572ZM52.7689 7.572C52.7689 8.544 53.1769 9.12 54.1009 9.12C54.6889 9.12 55.4689 8.844 55.5289 8.808C55.6489 8.76 55.7089 8.64 55.6609 8.52L55.4209 7.764C55.3849 7.644 55.2889 7.584 55.1569 7.632C55.0249 7.68 54.7729 7.764 54.5689 7.764C54.3769 7.764 54.1969 7.716 54.1969 7.38V5.46H55.2529C55.3849 5.46 55.4809 5.352 55.4809 5.232V4.428C55.4809 4.296 55.3849 4.2 55.2529 4.2H54.1969V2.856C54.1969 2.736 54.1009 2.628 53.9809 2.628L52.9969 2.64C52.8769 2.64 52.7689 2.748 52.7689 2.868V4.2H52.3609C52.2409 4.2 52.1449 4.296 52.1449 4.428V5.232C52.1449 5.352 52.2409 5.46 52.3609 5.46H52.7689V7.572ZM56.3056 7.476C56.3056 8.496 56.9656 9.12 57.9256 9.12C58.6696 9.12 59.1136 8.76 59.3896 8.508L59.5336 8.832C59.5936 8.964 59.6536 9 59.7376 9H60.1696C60.2896 9 60.3976 8.892 60.3976 8.772V6.168C60.3976 4.86 60.0496 4.08 58.5496 4.08C57.7816 4.08 57.0136 4.272 56.9176 4.308C56.8096 4.344 56.7136 4.428 56.7496 4.608L56.8576 5.232C56.8816 5.388 56.9656 5.496 57.1336 5.448C57.4096 5.364 58.0336 5.268 58.4776 5.268C58.9216 5.268 59.1136 5.484 59.1016 6.096C59.1016 6.096 58.7056 5.964 58.2256 5.964C57.0016 5.964 56.3056 6.624 56.3056 7.476ZM57.6256 7.476C57.6256 7.092 57.9376 6.828 58.4056 6.828C58.7536 6.828 59.0776 6.972 59.0776 6.972V7.632C59.0056 7.776 58.6336 8.1 58.2496 8.1C57.8776 8.1 57.6256 7.836 57.6256 7.476ZM61.7747 8.772C61.7747 8.892 61.8827 9 62.0027 9H63.0107C63.1307 9 63.2387 8.892 63.2387 8.772V0.827999C63.2387 0.707999 63.1307 0.599999 63.0107 0.599999H62.0027C61.8827 0.599999 61.7747 0.707999 61.7747 0.827999V8.772Z" fill="#008899"/>
</svg>
