 <svg version="1.0" xmlns="http://www.w3.org/2000/svg" width="700.000000pt" height="550.000000pt" viewBox="0 0 700.000000 550.000000" preserveAspectRatio="xMidYMid meet">
<metadata>
Created by potrace 1.12, written by Peter Selinger 2001-2015
</metadata>
<g transform="translate(0.000000,550.000000) scale(0.100000,-0.100000)" fill="#000000" stroke="none">
<path d="M1428 4043 c-21 -25 -4 -46 50 -59 74 -19 109 -39 167 -98 51 -51 68
-81 160 -285 23 -53 54 -121 68 -151 14 -30 53 -118 87 -195 34 -77 71 -160
82 -185 11 -25 38 -83 59 -128 22 -46 39 -85 39 -87 0 -2 15 -36 34 -77 18
-40 48 -107 66 -148 18 -41 49 -111 70 -155 20 -44 45 -101 56 -127 10 -27 24
-48 30 -48 16 0 234 236 234 252 0 8 -16 48 -36 89 -20 41 -58 121 -84 179
-26 58 -66 144 -89 192 -22 48 -41 90 -41 92 0 3 -17 42 -39 88 -160 342 -261
604 -261 677 0 39 5 52 28 73 37 34 55 40 147 47 79 6 80 6 80 34 l0 28 -448
2 c-339 1 -451 -1 -459 -10z"></path>
<path d="M3048 4043 c-16 -20 -5 -48 22 -51 92 -10 146 -28 184 -64 l39 -37
-5 -68 c-7 -87 -58 -243 -195 -593 -74 -188 -125 -303 -146 -333 -12 -18 -16
-32 -10 -38 6 -6 57 38 137 118 114 114 166 181 166 213 0 5 8 29 19 53 10 23
30 71 43 107 70 180 109 278 159 395 74 175 105 203 277 251 8 2 12 15 10 30
l-3 25 -343 2 c-258 2 -346 -1 -354 -10z"></path>
<path d="M4084 3827 c-72 -67 -191 -176 -265 -242 -73 -66 -176 -160 -229
-210 -52 -49 -147 -137 -210 -194 -291 -264 -993 -985 -1350 -1385 -69 -77
-173 -191 -232 -253 -158 -167 -141 -182 25 -25 111 105 245 226 308 278 226
189 1225 1175 1518 1499 107 119 225 250 325 359 45 49 86 95 91 101 6 6 46
48 90 93 52 54 76 85 69 92 -6 6 -55 -33 -140 -113z"></path>
<path d="M4891 3495 c-5 -5 -11 -23 -15 -38 -4 -15 -19 -56 -35 -90 -24 -53
-144 -324 -186 -422 -7 -16 -23 -52 -35 -80 -13 -27 -37 -84 -55 -125 -18 -41
-74 -169 -125 -285 -51 -115 -123 -280 -160 -366 -37 -86 -75 -172 -83 -190
-9 -19 -18 -44 -22 -56 -7 -25 -27 -30 -42 -10 -5 6 -24 46 -43 87 -18 41 -57
126 -87 189 -29 62 -53 115 -53 118 0 2 -21 48 -46 101 -25 53 -61 131 -79
172 -18 41 -55 122 -82 180 -27 58 -81 174 -118 258 -38 84 -72 151 -75 150
-4 -2 -62 -60 -129 -130 l-123 -127 21 -43 c32 -69 90 -195 136 -298 24 -52
61 -134 84 -183 22 -48 41 -89 41 -91 0 -2 22 -50 49 -107 26 -57 58 -126 71
-154 12 -27 42 -92 66 -144 24 -51 44 -95 44 -97 0 -1 17 -40 39 -86 21 -46
48 -103 59 -128 70 -156 111 -238 121 -245 7 -3 19 -1 28 6 17 14 27 37 173
364 82 185 88 197 129 288 17 37 31 69 31 72 0 2 20 47 45 99 25 53 45 98 45
101 0 2 24 57 54 122 29 65 64 141 76 168 13 28 36 78 51 113 16 34 29 64 29
66 0 2 17 42 39 88 44 95 165 374 174 401 4 9 13 17 22 17 14 0 15 -85 13
-827 l-3 -828 -30 -60 c-36 -72 -80 -98 -200 -118 -74 -12 -80 -15 -80 -38 l0
-24 476 -3 477 -2 5 22 c8 30 1 38 -34 38 -66 0 -158 32 -199 69 -72 65 -71
41 -68 1022 l3 864 24 48 c13 27 37 57 54 67 25 16 127 43 192 52 15 3 20 11
20 31 l0 28 -338 2 c-216 1 -342 -2 -346 -8z"></path>
<path d="M3087 2621 l-67 -69 0 -458 c0 -463 -4 -535 -39 -619 -33 -83 -122
-139 -245 -154 -46 -5 -51 -8 -51 -31 l0 -25 400 0 400 0 3 26 c3 25 0 26 -52
33 -112 13 -189 56 -227 126 -43 80 -42 72 -46 664 -2 313 -5 571 -6 573 -2 2
-34 -28 -70 -66z"></path>
</g>
</svg>