<svg width="329" height="47" viewBox="0 0 329 47" fill="none" xmlns="http://www.w3.org/2000/svg">
<path d="M39.0987 29.4644C41.0868 24.6619 42.6271 20.8389 43.7199 17.9953C44.2992 16.4913 44.8719 14.981 45.438 13.4644C46.2148 11.6698 47.0508 10.2859 47.9461 9.31279C48.5386 8.66824 49.2495 8.34597 50.079 8.34597C50.8294 8.34597 51.4877 8.59873 52.0538 9.10426C52.6199 9.59715 52.903 10.2038 52.903 10.9242C52.903 11.4297 52.7253 11.9289 52.3698 12.4218C51.6588 13.4076 51.0071 14.5956 50.4147 15.9858C50.3884 16.0363 49.9012 17.2875 48.9533 19.7393C47.7684 22.6588 46.0042 27.0379 43.6607 32.8768C43.055 34.406 42.3112 35.9352 41.4291 37.4644C40.8629 38.4502 40.0401 38.9431 38.9605 38.9431C37.5912 38.9431 36.6367 38.3238 36.0969 37.0853C34.4907 33.4076 32.7068 28.1058 30.7451 21.1801C30.2053 19.4739 29.6589 17.7678 29.1059 16.0616C28.3686 13.6856 28 12.0363 28 11.1137C28 10.3681 28.2896 9.74881 28.8689 9.25592C29.4219 8.80094 30.067 8.57345 30.8043 8.57345C32.0682 8.57345 32.9503 9.20537 33.4506 10.4692C33.7139 11.5687 33.9772 12.6619 34.2406 13.7488C34.675 15.1137 35.3004 17.1611 36.1167 19.891C37.1436 23.5055 38.1376 26.6967 39.0987 29.4644Z" fill="#2DA1C2"/>
<path d="M61.6011 14.6398C60.7585 14.6398 60.0278 14.3681 59.409 13.8246C58.7902 13.2812 58.4808 12.6177 58.4808 11.8341C58.4808 11.0505 58.7902 10.387 59.409 9.8436C60.0278 9.30015 60.7585 9.02843 61.6011 9.02843C62.4437 9.02843 63.1678 9.30015 63.7734 9.8436C64.3922 10.387 64.7016 11.0505 64.7016 11.8341C64.7016 12.6177 64.3922 13.2812 63.7734 13.8246C63.1678 14.3681 62.4437 14.6398 61.6011 14.6398ZM63.2797 28.5355C63.2797 29.2559 63.2995 30.4123 63.339 32.0047C63.3916 33.5972 63.418 34.7535 63.418 35.4739C63.418 36.2069 63.1612 36.8136 62.6478 37.2938C62.1343 37.7614 61.4826 37.9953 60.6927 37.9953C59.9027 37.9953 59.251 37.7614 58.7375 37.2938C58.2241 36.8136 57.9673 36.2069 57.9673 35.4739C57.9673 34.7535 57.941 33.5972 57.8883 32.0047C57.8489 30.4123 57.8291 29.2559 57.8291 28.5355C57.8291 27.4107 57.8949 26.0016 58.0266 24.3081C58.1582 22.6145 58.2241 21.2054 58.2241 20.0806C58.2241 19.3475 58.4808 18.7472 58.9943 18.2796C59.5077 17.7994 60.1594 17.5592 60.9494 17.5592C61.7393 17.5592 62.391 17.7994 62.9045 18.2796C63.418 18.7472 63.6747 19.3475 63.6747 20.0806C63.6747 21.2054 63.6089 22.6145 63.4772 24.3081C63.3456 26.0016 63.2797 27.4107 63.2797 28.5355Z" fill="#2DA1C2"/>
<path d="M80.2525 36.0237C80.1866 36.6556 79.9167 37.1738 79.4428 37.5782C78.9688 37.9826 78.3829 38.1848 77.6852 38.1848C76.3554 38.1848 75.4141 37.5276 74.8611 36.2133C73.4392 32.8009 71.2603 27.7077 68.3243 20.9336C68.1532 20.5545 68.0676 20.1943 68.0676 19.8531C68.0676 19.1706 68.3506 18.5956 68.9168 18.128C69.4961 17.6477 70.1543 17.4076 70.8916 17.4076C72.0239 17.4076 72.8336 17.9068 73.3207 18.9052C74.0712 20.4344 75.5326 24.0111 77.7049 29.6351C78.4027 28.2069 79.3638 26.0332 80.5882 23.1137C80.9568 22.1406 81.5296 20.782 82.3063 19.0379C82.8461 18.0269 83.6624 17.5213 84.7552 17.5213C85.4924 17.5213 86.1441 17.7551 86.7103 18.2227C87.2896 18.6904 87.5792 19.2717 87.5792 19.9668C87.5792 20.4218 86.5128 22.9242 84.3799 27.4739C82.6421 31.1896 81.2662 34.0395 80.2525 36.0237Z" fill="#2DA1C2"/>
<path d="M100.484 38.2986C97.3371 38.2986 94.7632 37.5782 92.762 36.1374C90.5502 34.545 89.4443 32.3017 89.4443 29.4076C89.4443 26.2101 90.3198 23.5055 92.0708 21.2938C94.0194 18.842 96.6459 17.6161 99.9505 17.6161C102.241 17.6161 104.144 17.97 105.658 18.6777C107.646 19.6129 108.64 21.0663 108.64 23.0379C108.64 24.4281 107.83 25.6603 106.211 26.7346C105.474 27.2275 103.992 27.9479 101.767 28.8957L95.1121 31.7204C95.7441 32.3776 96.5077 32.8705 97.403 33.199C98.2982 33.5276 99.3252 33.6919 100.484 33.6919C102.248 33.6919 103.742 33.3444 104.967 32.6493C106.059 32.03 106.935 31.7204 107.593 31.7204C108.962 31.7204 109.647 32.3586 109.647 33.6351C109.647 35.0758 108.548 36.2512 106.349 37.1611C104.506 37.9194 102.551 38.2986 100.484 38.2986ZM99.9505 22.2038C98.7261 22.2038 97.6794 22.5956 96.8105 23.3791C95.9416 24.1627 95.2438 25.3381 94.7172 26.9052C96.2049 26.2859 97.686 25.673 99.1606 25.0663C100.938 24.2954 102.353 23.5814 103.407 22.9242C102.524 22.4439 101.372 22.2038 99.9505 22.2038Z" fill="#2DA1C2"/>
<path d="M130.984 38.2038C129.944 38.2038 129.154 37.7235 128.614 36.763C127.969 35.6129 127.002 34.2543 125.711 32.6872C123.71 30.248 122.65 28.9526 122.532 28.8009C121.479 29.5466 120.61 30.1153 119.925 30.5071C119.793 32.2638 119.728 33.9447 119.728 35.5498C119.728 36.2828 119.471 36.8894 118.957 37.3697C118.444 37.8499 117.792 38.09 117.002 38.09C115.146 38.09 114.218 37.0284 114.218 34.9052C114.218 33.9068 114.29 32.4155 114.435 30.4313C114.593 28.4344 114.672 26.9368 114.672 25.9384C114.672 24.1058 114.698 22.0142 114.751 19.6635C114.817 17.3002 114.85 15.2148 114.85 13.4076C114.85 12.8641 114.817 12.2259 114.751 11.4929C114.698 10.7472 114.672 10.1027 114.672 9.55924C114.672 8.82622 114.929 8.2259 115.442 7.75829C115.956 7.27804 116.607 7.03791 117.397 7.03791C118.187 7.03791 118.839 7.27804 119.352 7.75829C119.866 8.2259 120.123 8.82622 120.123 9.55924C120.123 10.1153 120.155 10.7725 120.221 11.5308C120.287 12.2891 120.32 12.9463 120.32 13.5024C120.32 15.0063 120.281 16.7883 120.202 18.8483C120.123 20.8199 120.09 22.5766 120.103 24.1185C121.893 22.7915 124.619 20.3776 128.279 16.8768C128.858 16.3207 129.516 16.0426 130.254 16.0426C130.991 16.0426 131.643 16.3017 132.209 16.8199C132.775 17.3381 133.058 17.9384 133.058 18.6208C133.058 19.2022 132.801 19.7646 132.288 20.3081C130.734 21.9763 128.884 23.7204 126.738 25.5403L130.846 30.6208C132.834 33.1611 133.828 34.8547 133.828 35.7014C133.828 36.3965 133.538 36.9842 132.959 37.4644C132.38 37.9573 131.722 38.2038 130.984 38.2038Z" fill="#2DA1C2"/>
<path d="M164.614 22.4502C164.021 24.4976 163.192 27.5877 162.126 31.7204C161.875 33.1485 161.632 34.5703 161.395 35.9858C160.855 37.7804 159.861 38.6777 158.413 38.6777C157.504 38.6777 156.787 38.3807 156.26 37.7867C155.813 37.2812 155.589 36.6809 155.589 35.9858C155.589 33.9384 156.043 31.4423 156.951 28.4976C158.307 24.0869 159.038 21.6414 159.143 21.1611C159.525 19.2148 159.914 17.2686 160.309 15.3223C160.901 12.643 161.54 10.861 162.224 9.9763C162.922 9.07898 163.798 8.63033 164.851 8.63033C166.049 8.63033 166.931 9.21168 167.497 10.3744C168.024 11.4739 168.59 13.7235 169.196 17.1232C169.775 20.4218 170.637 23.9731 171.783 27.7772C173.283 24.0237 174.679 19.9036 175.969 15.4171L177.075 11.0569C177.786 9.2496 178.886 8.34597 180.373 8.34597C181.808 8.34597 182.875 9.39494 183.573 11.4929C183.862 12.3396 184.172 13.9194 184.501 16.2322C185.264 21.6161 186.225 26.2291 187.384 30.0711C188.556 33.9763 189.142 36.0995 189.142 36.4408C189.142 37.1864 188.832 37.812 188.213 38.3175C187.634 38.7725 186.982 39 186.258 39C184.823 39 183.757 38.0142 183.059 36.0426L181.953 31.455C181.321 29.1801 180.637 25.9131 179.899 21.654C179.307 23.3475 178.326 26.0079 176.957 29.6351L175.772 33.1232C175.285 34.5008 174.778 35.6319 174.251 36.5166C173.553 37.6919 172.579 38.2796 171.328 38.2796C170.091 38.2796 169.143 37.5782 168.485 36.1753L167.379 32.6493C166.352 29.4139 165.43 26.0142 164.614 22.4502Z" fill="#2DA1C2"/>
<path d="M197.603 14.6398C196.76 14.6398 196.029 14.3681 195.411 13.8246C194.792 13.2812 194.482 12.6177 194.482 11.8341C194.482 11.0505 194.792 10.387 195.411 9.8436C196.029 9.30015 196.76 9.02843 197.603 9.02843C198.445 9.02843 199.169 9.30015 199.775 9.8436C200.394 10.387 200.703 11.0505 200.703 11.8341C200.703 12.6177 200.394 13.2812 199.775 13.8246C199.169 14.3681 198.445 14.6398 197.603 14.6398ZM199.281 28.5355C199.281 29.2559 199.301 30.4123 199.341 32.0047C199.393 33.5972 199.42 34.7535 199.42 35.4739C199.42 36.2069 199.163 36.8136 198.649 37.2938C198.136 37.7614 197.484 37.9953 196.694 37.9953C195.904 37.9953 195.253 37.7614 194.739 37.2938C194.226 36.8136 193.969 36.2069 193.969 35.4739C193.969 34.7535 193.943 33.5972 193.89 32.0047C193.85 30.4123 193.831 29.2559 193.831 28.5355C193.831 27.4107 193.897 26.0016 194.028 24.3081C194.16 22.6145 194.226 21.2054 194.226 20.0806C194.226 19.3475 194.482 18.7472 194.996 18.2796C195.509 17.7994 196.161 17.5592 196.951 17.5592C197.741 17.5592 198.393 17.7994 198.906 18.2796C199.42 18.7472 199.676 19.3475 199.676 20.0806C199.676 21.2054 199.61 22.6145 199.479 24.3081C199.347 26.0016 199.281 27.4107 199.281 28.5355Z" fill="#2DA1C2"/>
<path d="M219.592 22.1659C219.315 22.1659 218.986 22.1596 218.604 22.1469C218.236 22.1216 217.913 22.109 217.637 22.109C217.097 22.109 216.471 22.1596 215.76 22.2607C215.997 27.3665 216.116 30.703 216.116 32.2701C216.116 32.4344 216.122 32.7441 216.136 33.199C216.149 33.6414 216.155 34.0016 216.155 34.2796C216.155 37.1864 215.201 38.6398 213.292 38.6398C212.568 38.6398 211.942 38.425 211.416 37.9953C210.836 37.5403 210.547 36.9716 210.547 36.2891C210.547 35.8341 210.567 35.1517 210.606 34.2417C210.645 33.3317 210.665 32.6493 210.665 32.1943C210.665 30.6651 210.547 27.3918 210.31 22.3744C209.493 22.3365 208.256 22.2354 206.597 22.0711C204.951 21.8941 204.128 21.0727 204.128 19.6066C204.128 18.8989 204.379 18.2986 204.879 17.8057C205.379 17.3128 206.024 17.0663 206.814 17.0663C207.301 17.0663 208.42 17.1422 210.172 17.2938C210.158 16.8894 210.125 16.2196 210.073 15.2844C210.02 14.4755 209.994 13.8499 209.994 13.4076C209.994 12.6998 210.264 12.1122 210.803 11.6445C211.343 11.1769 211.995 10.9431 212.759 10.9431C214.707 10.9431 215.681 12.5166 215.681 15.6635L215.642 17.218C216.458 17.1043 217.123 17.0474 217.637 17.0474C219.151 17.0474 220.184 17.1422 220.737 17.3317C221.79 17.6856 222.317 18.4566 222.317 19.6445C222.317 20.3649 222.06 20.9652 221.547 21.4455C221.033 21.9257 220.382 22.1659 219.592 22.1659Z" fill="#2DA1C2"/>
<path d="M239.882 22.1659C239.606 22.1659 239.277 22.1596 238.895 22.1469C238.526 22.1216 238.204 22.109 237.927 22.109C237.387 22.109 236.762 22.1596 236.051 22.2607C236.288 27.3665 236.406 30.703 236.406 32.2701C236.406 32.4344 236.413 32.7441 236.426 33.199C236.439 33.6414 236.446 34.0016 236.446 34.2796C236.446 37.1864 235.491 38.6398 233.582 38.6398C232.858 38.6398 232.233 38.425 231.706 37.9953C231.127 37.5403 230.837 36.9716 230.837 36.2891C230.837 35.8341 230.857 35.1517 230.897 34.2417C230.936 33.3317 230.956 32.6493 230.956 32.1943C230.956 30.6651 230.837 27.3918 230.6 22.3744C229.784 22.3365 228.546 22.2354 226.888 22.0711C225.242 21.8941 224.419 21.0727 224.419 19.6066C224.419 18.8989 224.669 18.2986 225.169 17.8057C225.67 17.3128 226.315 17.0663 227.105 17.0663C227.592 17.0663 228.711 17.1422 230.462 17.2938C230.449 16.8894 230.416 16.2196 230.363 15.2844C230.311 14.4755 230.284 13.8499 230.284 13.4076C230.284 12.6998 230.554 12.1122 231.094 11.6445C231.634 11.1769 232.286 10.9431 233.049 10.9431C234.998 10.9431 235.972 12.5166 235.972 15.6635L235.932 17.218C236.749 17.1043 237.414 17.0474 237.927 17.0474C239.441 17.0474 240.475 17.1422 241.028 17.3317C242.081 17.6856 242.607 18.4566 242.607 19.6445C242.607 20.3649 242.351 20.9652 241.837 21.4455C241.324 21.9257 240.672 22.1659 239.882 22.1659Z" fill="#2DA1C2"/>
<path d="M263.273 38.6777C262.668 38.6777 261.706 38.0458 260.39 36.782C259.179 37.3381 258.112 37.7551 257.191 38.0332C256.269 38.3238 255.486 38.4692 254.841 38.4692C251.668 38.4692 249.285 37.654 247.692 36.0237C246.112 34.3934 245.322 31.9542 245.322 28.7062C245.322 25.6603 246.493 23.0569 248.837 20.8957C251.18 18.722 253.985 17.6351 257.25 17.6351C258.501 17.6351 259.949 17.9763 261.595 18.6588C263.583 19.4802 264.577 20.4344 264.577 21.5213C264.577 21.9763 264.425 22.3744 264.122 22.7156C263.991 23.2212 263.885 23.8594 263.806 24.6303C263.741 25.3886 263.708 26.2796 263.708 27.3033C263.708 29.7172 263.885 31.455 264.241 32.5166C264.28 32.6303 264.583 33.2875 265.149 34.4881C265.663 35.575 265.92 36.1943 265.92 36.346C265.92 37.0158 265.65 37.5719 265.11 38.0142C264.583 38.4565 263.971 38.6777 263.273 38.6777ZM258.376 25.673C258.376 25.2686 258.402 24.8073 258.455 24.2891C258.52 23.7583 258.613 23.1706 258.731 22.5261C258.468 22.3997 258.231 22.3112 258.02 22.2607C257.823 22.1975 257.651 22.1659 257.507 22.1659C255.716 22.1659 254.149 22.842 252.806 24.1943C251.464 25.534 250.792 27.0885 250.792 28.8578C250.792 30.5513 251.108 31.8278 251.74 32.6872C252.372 33.534 253.32 33.9573 254.584 33.9573C255.4 33.9573 256.17 33.831 256.894 33.5782C257.632 33.3128 258.323 32.9273 258.968 32.4218C258.573 29.4139 258.376 27.1643 258.376 25.673Z" fill="#2DA1C2"/>
<path d="M276 34.6398C276 37.0411 275.092 38.2417 273.275 38.2417C272.485 38.2417 271.833 38.0016 271.32 37.5213C270.806 37.0411 270.549 36.4218 270.549 35.6635V9.44549C270.549 8.71247 270.826 8.11216 271.379 7.64454C271.905 7.21484 272.557 6.99999 273.334 6.99999C274.111 6.99999 274.749 7.22748 275.25 7.68246C275.75 8.1248 276 8.71247 276 9.44549V34.6398Z" fill="#2DA1C2"/>
<path d="M305.757 2.10829C304.265 1.67263 302.669 2.31679 301.897 3.66607L281.545 39.2415C280.465 41.1287 281.434 43.5288 283.521 44.1384V44.1384C285.013 44.5743 286.61 43.9301 287.382 42.5806L307.733 7.00489C308.813 5.11773 307.844 2.71761 305.757 2.10829V2.10829Z" fill="#F37F13"/>
<path d="M312.324 38.85L328.974 25.2V20.55L312.574 6.99999L309.474 11L323.974 22.6V23.15L309.324 34.95L312.324 38.85Z" fill="#F37F13"/>
<path d="M16.65 7.14999L0 20.8V25.45L16.4 39L19.5 35L5 23.4L5 22.85L19.65 11.05L16.65 7.14999Z" fill="#F37F13"/>
</svg>
